<svg id="e1MgELtC5Is1" xmlns="http://www.w3.org/2000/svg" xmlns:xlink="http://www.w3.org/1999/xlink" viewBox="0 0 300 300" shape-rendering="geometricPrecision" text-rendering="geometricPrecision"><g><path d="M115.37572,51.509043q29.752328-.88813,42.630201,10.65755q13.765958-5.328777,22.203185-5.772842c8.437227-.444065,23.535424,2.220323,27.532005,17.318519s4.440646,30.901758-8.437227,55.416692s0,29.399644-49.303928,39.61313-47.502153-.091381-58.159703-39.61313-33.304844-9.233975-12.877831-24.776235c16.71472-12.717695,7.993161-24.867618,4.884709-37.301426s5.772839-20.871035,13.321937-24.423552-11.545681,9.769422,18.206652,8.881294Z" transform="matrix(.987011 0.160651-.160651 0.987011 21.143618-.50747)" fill="#feb5aa" stroke="#3f5787" stroke-width="0"/><path d="M150.94931,84.47179c0-4.93714,7.056655-15.03538,15.32679-15.01077.123705.000368-1.42208,2.91906-4.10822,7.803768-3.429226,6.236-.672421,11.888352,0,10.65755c1.460315-2.672968,5.847329-9.406732,10.951432-12.966336c6.778881-4.727595,5.724868-1.924278,5.724868-1.924278" transform="matrix(1.310975 0.333698-.402904 1.582857 0.35894-96.13571)" fill="none" stroke="#000" stroke-width="1.5" stroke-linecap="round" stroke-miterlimit="10"/></g></svg>
